<svg width="71" height="70" viewBox="0 0 71 70" fill="none" xmlns="http://www.w3.org/2000/svg">
<path d="M70.5381 51.1042L61.4969 17.3634C61.3416 16.7823 61.0476 16.2476 60.6402 15.8051C60.2327 15.3627 59.724 15.0257 59.1577 14.8231L48.2762 10.928L48.0274 10.403C47.8467 10.0215 47.6026 9.67341 47.3055 9.37352L51.8296 1.53817C51.8969 1.42147 51.9406 1.29265 51.9581 1.15906C51.9757 1.02548 51.9667 0.889748 51.9318 0.759619C51.8969 0.62949 51.8367 0.507512 51.7546 0.400649C51.6726 0.293786 51.5703 0.204131 51.4536 0.136803C51.2179 0.000827313 50.9378 -0.0359511 50.675 0.0345582C50.4122 0.105067 50.1882 0.277089 50.0522 0.512779L45.5296 8.34813C45.1219 8.24301 44.6997 8.20606 44.2799 8.23876L25.7081 9.76454C25.0957 9.81499 24.5046 10.0131 23.9856 10.3419C23.4665 10.6708 23.0349 11.1205 22.7276 11.6526L1.17799 48.9782C0.927693 49.4105 0.765102 49.8879 0.699524 50.3832C0.633945 50.8784 0.666665 51.3817 0.795812 51.8642C0.924959 52.3468 1.148 52.7991 1.45216 53.1954C1.75633 53.5916 2.13565 53.924 2.56842 54.1735L29.1042 69.4915C29.5366 69.7414 30.014 69.9037 30.5091 69.9691C31.0042 70.0345 31.5074 70.0017 31.9899 69.8726C32.4723 69.7435 32.9246 69.5205 33.3209 69.2166C33.7172 68.9126 34.0497 68.5336 34.2995 68.1011L39.6042 58.9136L39.7231 59.3606C39.8489 59.833 40.0667 60.2758 40.364 60.6638C40.6613 61.0518 41.0322 61.3773 41.4555 61.6217C41.8789 61.8661 42.3462 62.0245 42.8309 62.0879C43.3156 62.1513 43.808 62.1184 44.2799 61.9911L67.9077 55.661C68.8606 55.4053 69.673 54.7817 70.1663 53.9272C70.6596 53.0727 70.7933 52.0573 70.5381 51.1042ZM58.4659 16.755C58.7204 16.8457 58.949 16.9968 59.1322 17.1954C59.3153 17.3941 59.4475 17.6342 59.5173 17.8952L66.1837 42.778L45.7592 48.2468L55.8477 30.7714C56.1553 30.2395 56.3291 29.6408 56.3544 29.0269C56.3796 28.413 56.2555 27.8021 55.9926 27.2468L49.5163 13.5503L58.4659 16.755ZM32.5221 67.0757C32.2897 67.477 31.9075 67.7698 31.4595 67.8898C31.0115 68.0097 30.5342 67.947 30.1323 67.7155L3.59381 52.3934C3.19217 52.1613 2.89916 51.7791 2.77918 51.331C2.6592 50.8828 2.72207 50.4054 2.95397 50.0036L24.5036 12.6794C24.6444 12.4349 24.8423 12.2281 25.0804 12.0767C25.3185 11.9253 25.5896 11.8337 25.8708 11.8098L44.4167 10.2868L39.9049 18.1098C39.4926 17.9854 39.0642 17.9223 38.6335 17.9225C37.5973 17.9171 36.5917 18.2734 35.79 18.9298C34.9884 19.5862 34.4408 20.5018 34.2417 21.5186C34.0425 22.5355 34.2044 23.5899 34.6993 24.5003C35.1942 25.4106 35.9912 26.1198 36.9528 26.5055C37.9145 26.8913 38.9806 26.9296 39.9674 26.6137C40.9543 26.2978 41.8 25.6475 42.3588 24.775C42.9177 23.9025 43.1547 22.8623 43.0289 21.8338C42.9032 20.8053 42.4226 19.8529 41.67 19.1407L46.1817 11.3136L54.1319 28.13C54.253 28.3857 54.3101 28.667 54.2984 28.9496C54.2868 29.2323 54.2066 29.5079 54.0649 29.7528L32.5221 67.0757ZM41.0151 22.3686C41.0151 22.8418 40.8748 23.3044 40.6119 23.6979C40.349 24.0913 39.9753 24.398 39.5381 24.5791C39.1009 24.7602 38.6199 24.8076 38.1558 24.7152C37.6916 24.6229 37.2653 24.3951 36.9307 24.0604C36.5961 23.7258 36.3682 23.2995 36.2759 22.8354C36.1836 22.3713 36.231 21.8902 36.4121 21.453C36.5932 21.0159 36.8998 20.6422 37.2933 20.3793C37.6867 20.1164 38.1493 19.9761 38.6225 19.9761C39.2564 19.9768 39.8641 20.2287 40.3126 20.6767C40.761 21.1246 41.0137 21.732 41.0151 22.3659V22.3686ZM68.3903 52.902C68.281 53.0923 68.135 53.259 67.9609 53.3925C67.7868 53.526 67.5879 53.6237 67.3758 53.68L43.7481 60.0114C43.5359 60.0691 43.3144 60.0842 43.0963 60.056C42.8782 60.0278 42.6678 59.9568 42.4772 59.847C42.2866 59.7372 42.1196 59.5909 41.9858 59.4164C41.852 59.2419 41.7539 59.0427 41.6973 58.8302L41.0465 56.402L44.3032 50.761L66.7087 44.7577L68.5516 51.6347C68.6099 51.8461 68.6257 52.067 68.598 52.2845C68.5703 52.5021 68.4997 52.712 68.3903 52.902Z" fill="url(#paint0_linear_25_1151)"/>
<defs>
<linearGradient id="paint0_linear_25_1151" x1="0.672646" y1="35.0073" x2="70.6526" y2="35.0073" gradientUnits="userSpaceOnUse">
<stop stop-color="#3CAB90"/>
<stop offset="1" stop-color="#0E6752"/>
</linearGradient>
</defs>
</svg>
